<svg width="97" height="97" viewBox="0 0 97 97" fill="none" xmlns="http://www.w3.org/2000/svg">
<path d="M41.734 55.1992L69.0354 82.5782L65.4119 86.2119L65.3848 86.1848C63.5832 84.3781 60.6641 84.3781 58.8626 86.1848C57.061 87.9915 57.061 90.9189 58.8626 92.7256L58.8896 92.7527L55.2662 96.3865L27.9648 69.0076L31.5883 65.3738L31.6154 65.401C31.7102 65.496 31.805 65.5911 31.9134 65.6726C33.7218 67.2009 36.4309 67.1058 38.1377 65.401C39.9392 63.5943 39.9392 60.6669 38.1377 58.8602L38.1106 58.833L41.734 55.1992Z" fill="#4DBD97"/>
<path d="M69.2521 27.603L96.5534 54.982L92.93 58.6157L92.9029 58.5886C91.1013 56.7819 88.1822 56.7819 86.3806 58.5886C84.5791 60.3953 84.5791 63.3227 86.3806 65.1294L86.4077 65.1565L82.7842 68.7903L55.4829 41.4114L59.1064 37.7776L59.1335 37.8048C59.2283 37.8998 59.3231 37.9949 59.4315 38.0764C61.2398 39.6047 63.949 39.5096 65.6557 37.8048C67.4573 35.9981 67.4573 33.0707 65.6557 31.264L65.6286 31.2368L69.2521 27.603Z" fill="#27557E"/>
<path d="M55.4896 13.8015L14.2091 55.1994L10.5857 51.5656L10.6128 51.5384C12.4143 49.7317 12.4143 46.8043 10.6128 44.9976C8.81118 43.1909 5.89208 43.1909 4.09051 44.9976L4.06341 45.0248L0.439941 41.391L41.734 0L45.3574 3.63377L45.3303 3.66094C45.2355 3.75603 45.1407 3.85112 45.0594 3.95979C43.5355 5.77328 43.6304 8.49012 45.3303 10.2017C47.1319 12.0084 50.051 12.0084 51.8526 10.2017L51.8797 10.1746L55.5032 13.8083L55.4896 13.8015Z" fill="#EF4870"/>
</svg>
